<svg width="37" height="39" viewBox="0 0 37 39" fill="none" xmlns="http://www.w3.org/2000/svg">
<mask id="mask0_348_40" style="mask-type:alpha" maskUnits="userSpaceOnUse" x="0" y="0" width="37" height="39">
<rect x="0.110352" y="0.854858" width="36.7061" height="37.2595" fill="#D9D9D9"/>
</mask>
<g mask="url(#mask0_348_40)">
<path d="M7.75708 33.4569C6.9159 33.4569 6.1958 33.1529 5.59678 32.5448C4.99775 31.9368 4.69824 31.2058 4.69824 30.352V8.61726C4.69824 7.7634 4.99775 7.03244 5.59678 6.42439C6.1958 5.81633 6.9159 5.51231 7.75708 5.51231H14.1806C14.512 4.58082 15.0664 3.83045 15.8439 3.26121C16.6213 2.69197 17.4944 2.40735 18.463 2.40735C19.4316 2.40735 20.3047 2.69197 21.0821 3.26121C21.8596 3.83045 22.414 4.58082 22.7454 5.51231H29.1689C30.0101 5.51231 30.7302 5.81633 31.3293 6.42439C31.9283 7.03244 32.2278 7.7634 32.2278 8.61726V19.0189C31.7435 18.786 31.2464 18.5855 30.7366 18.4173C30.2268 18.2491 29.7042 18.1262 29.1689 18.0486V8.61726H7.75708V30.352H17.0101C17.0865 30.9212 17.2076 31.4646 17.3733 31.9821C17.539 32.4996 17.7365 32.9912 17.966 33.4569H7.75708ZM7.75708 30.352V8.61726V18.0486V17.9321V30.352ZM10.8159 27.247H17.0483C17.1248 26.7036 17.2459 26.1732 17.4115 25.6557C17.5772 25.1382 17.762 24.6337 17.966 24.142H10.8159V27.247ZM10.8159 21.0371H20.1454C20.9611 20.2608 21.8723 19.614 22.8792 19.0965C23.8861 18.579 24.963 18.2297 26.1101 18.0486V17.9321H10.8159V21.0371ZM10.8159 14.8272H26.1101V11.7222H10.8159V14.8272ZM18.463 7.4529C18.7944 7.4529 19.0684 7.34294 19.2851 7.123C19.5017 6.90307 19.6101 6.62491 19.6101 6.28854C19.6101 5.95217 19.5017 5.67402 19.2851 5.45409C19.0684 5.23415 18.7944 5.12419 18.463 5.12419C18.1316 5.12419 17.8576 5.23415 17.641 5.45409C17.4243 5.67402 17.3159 5.95217 17.3159 6.28854C17.3159 6.62491 17.4243 6.90307 17.641 7.123C17.8576 7.34294 18.1316 7.4529 18.463 7.4529ZM27.6395 36.5619C25.5238 36.5619 23.7204 35.805 22.2292 34.2914C20.738 32.7777 19.9924 30.9471 19.9924 28.7995C19.9924 26.6519 20.738 24.8213 22.2292 23.3076C23.7204 21.7939 25.5238 21.0371 27.6395 21.0371C29.7552 21.0371 31.5587 21.7939 33.0498 23.3076C34.541 24.8213 35.2866 26.6519 35.2866 28.7995C35.2866 30.9471 34.541 32.7777 33.0498 34.2914C31.5587 35.805 29.7552 36.5619 27.6395 36.5619ZM26.8748 33.4569H28.4042V29.5757H32.2278V28.0232H28.4042V24.142H26.8748V28.0232H23.0513V29.5757H26.8748V33.4569Z" fill="#1C1B1F"/>
</g>
</svg>
