<svg width="30" height="28" viewBox="0 0 30 28" fill="none" xmlns="http://www.w3.org/2000/svg">
<mask id="mask0_348_13" style="mask-type:alpha" maskUnits="userSpaceOnUse" x="0" y="0" width="30" height="28">
<rect x="0.3125" y="0.772766" width="29.3877" height="26.9785" fill="#D9D9D9"/>
</mask>
<g mask="url(#mask0_348_13)">
<path d="M17.1183 24.3789L8.88367 16.5102V14.262H13.1694C14.251 14.262 15.1847 13.9388 15.9704 13.2925C16.7561 12.6461 17.2306 11.8452 17.3939 10.8897H7.65918V8.64149H17.0265C16.6796 7.98577 16.1643 7.44713 15.4806 7.0256C14.7969 6.60406 14.0265 6.39329 13.1694 6.39329H7.65918V4.14508H22.353V6.39329H18.3734C18.6592 6.71178 18.9143 7.05838 19.1387 7.43308C19.3632 7.80778 19.5367 8.21059 19.6592 8.64149H22.353V10.8897H19.8734C19.7102 12.4822 18.9959 13.8171 17.7306 14.8943C16.4653 15.9716 14.9449 16.5102 13.1694 16.5102H12.2816L20.5163 24.3789H17.1183Z" fill="#1C1B1F"/>
</g>
</svg>
