<svg width="44" height="39" viewBox="0 0 44 39" fill="none" xmlns="http://www.w3.org/2000/svg">
<mask id="mask0_348_25" style="mask-type:alpha" maskUnits="userSpaceOnUse" x="0" y="0" width="44" height="39">
<rect x="0.536133" y="0.324219" width="42.6475" height="38.4086" fill="#D9D9D9"/>
</mask>
<g mask="url(#mask0_348_25)">
<path d="M11.1995 32.3314C10.2221 32.3314 9.38546 32.018 8.68948 31.3911C7.9935 30.7643 7.64551 30.0108 7.64551 29.1306V24.3296H11.1995V29.1306H32.5232V24.3296H36.0771V29.1306C36.0771 30.0108 35.7292 30.7643 35.0332 31.3911C34.3372 32.018 33.5005 32.3314 32.5232 32.3314H11.1995ZM21.8613 25.9299L12.9764 17.9281L15.4642 15.6076L20.0843 19.7686V6.72565H23.6383V19.7686L28.2584 15.6076L30.7462 17.9281L21.8613 25.9299Z" fill="#1C1B1F"/>
</g>
</svg>
