<svg width="41" height="38" viewBox="0 0 41 38" fill="none" xmlns="http://www.w3.org/2000/svg">
<mask id="mask0_348_34" style="mask-type:alpha" maskUnits="userSpaceOnUse" x="0" y="0" width="41" height="38">
<rect x="0.806641" y="0.717041" width="39.8496" height="37.1809" fill="#D9D9D9"/>
</mask>
<g mask="url(#mask0_348_34)">
<path d="M22.5576 34.7995C22.3639 34.7995 22.1702 34.7802 21.9765 34.7414C21.7828 34.7027 21.5891 34.6575 21.3954 34.6059L11.3084 31.1202C10.6443 30.8878 10.1185 30.5069 9.73105 29.9776C9.34362 29.4483 9.14991 28.8738 9.14991 28.2541C9.14991 28.125 9.21909 27.7636 9.35746 27.1697L13.55 16.2091H11.1009L15.5009 10.051C15.6393 9.89607 15.6877 9.72824 15.6462 9.5475C15.6047 9.36676 15.5148 9.21184 15.3764 9.08274L14.7953 8.54052L6.36874 15.357C5.89829 15.7185 5.54546 16.151 5.31023 16.6545C5.07501 17.158 4.9574 17.6937 4.9574 18.2618V27.8281H2.4668V18.2618C2.4668 17.3581 2.66743 16.4996 3.06869 15.6862C3.46996 14.8729 4.03034 14.1693 4.74985 13.5754L14.9198 5.36465L16.9538 7.26243L17.4934 5.86814C17.7425 5.24846 18.1507 4.75143 18.718 4.37704C19.2853 4.00264 19.9148 3.81545 20.6067 3.81545C20.8281 3.81545 21.0287 3.82836 21.2086 3.85418C21.3884 3.88 21.5891 3.93164 21.8105 4.0091L31.8974 7.49481C32.5616 7.72719 33.0873 8.11449 33.4748 8.65671C33.8622 9.19893 34.0559 9.77988 34.0559 10.3996C34.0559 10.5545 33.9867 10.9031 33.8484 11.4453L32.8936 13.924C33.6962 14.0531 34.3603 14.4017 34.8861 14.9697C35.4119 15.5378 35.6748 16.2091 35.6748 16.9837C35.6748 17.1128 35.6679 17.2419 35.6541 17.371C35.6402 17.5001 35.6056 17.6292 35.5503 17.7583H35.6748C36.588 17.7583 37.3698 18.0617 38.0201 18.6684C38.6704 19.2752 38.9956 20.0046 38.9956 20.8567C38.9956 21.4764 38.8226 22.0315 38.4767 22.5221C38.1308 23.0127 37.6811 23.3871 37.1277 23.6453C37.183 23.826 37.2314 24.0003 37.2729 24.1681C37.3144 24.3359 37.3352 24.5231 37.3352 24.7297C37.3352 25.5818 37.01 26.3112 36.3597 26.9179C35.7094 27.5247 34.9276 27.8281 34.0144 27.8281H33.8899C33.9452 27.9572 33.9798 28.0863 33.9937 28.2154C34.0075 28.3445 34.0144 28.4736 34.0144 28.6027C34.0144 29.4548 33.6892 30.1842 33.0389 30.791C32.3886 31.3977 31.6068 31.7011 30.6936 31.7011H26.086L25.7124 32.7468C25.491 33.3923 25.0828 33.8958 24.4879 34.2573C23.8929 34.6188 23.2495 34.7995 22.5576 34.7995ZM23.6369 28.8738L29.6143 13.2656L19.5274 9.77988L13.55 25.3881L23.6369 28.8738ZM26.9577 29.3773H30.6936C30.915 29.3773 31.1087 29.2999 31.2747 29.1449C31.4408 28.99 31.5238 28.8093 31.5238 28.6027C31.5238 28.3961 31.4408 28.2154 31.2747 28.0605C31.1087 27.9056 30.915 27.8281 30.6936 27.8281H27.5804L26.9577 29.3773ZM28.4521 25.5043H34.0144C34.2358 25.5043 34.4295 25.4268 34.5955 25.2719C34.7616 25.117 34.8446 24.9363 34.8446 24.7297C34.8446 24.5231 34.7616 24.3424 34.5955 24.1875C34.4295 24.0326 34.2358 23.9551 34.0144 23.9551H29.0747L28.4521 25.5043ZM29.9464 21.6313H35.6748C35.8962 21.6313 36.0899 21.5538 36.2559 21.3989C36.422 21.244 36.505 21.0633 36.505 20.8567C36.505 20.6501 36.422 20.4694 36.2559 20.3145C36.0899 20.1595 35.8962 20.0821 35.6748 20.0821H30.5276L29.9464 21.6313ZM31.4408 17.7583H32.354C32.5754 17.7583 32.7691 17.6808 32.9351 17.5259C33.1012 17.371 33.1842 17.1902 33.1842 16.9837C33.1842 16.7771 33.1012 16.5964 32.9351 16.4415C32.7691 16.2865 32.5754 16.2091 32.354 16.2091H32.0219L31.4408 17.7583Z" fill="#1C1B1F"/>
</g>
</svg>
