<svg width="25" height="25" viewBox="0 0 25 25" fill="none" xmlns="http://www.w3.org/2000/svg">
<mask id="mask0_348_19" style="mask-type:alpha" maskUnits="userSpaceOnUse" x="0" y="0" width="25" height="25">
<rect x="0.660156" y="0.471069" width="24" height="24" fill="#D9D9D9"/>
</mask>
<g mask="url(#mask0_348_19)">
<path d="M15.9602 17.1711L17.3602 15.7711L13.6602 12.0711V7.47107H11.6602V12.8711L15.9602 17.1711ZM12.6602 22.4711C11.2768 22.4711 9.97682 22.2086 8.76016 21.6836C7.54349 21.1586 6.48516 20.4461 5.58516 19.5461C4.68516 18.6461 3.97266 17.5877 3.44766 16.3711C2.92266 15.1544 2.66016 13.8544 2.66016 12.4711C2.66016 11.0877 2.92266 9.78774 3.44766 8.57107C3.97266 7.3544 4.68516 6.29607 5.58516 5.39607C6.48516 4.49607 7.54349 3.78357 8.76016 3.25857C9.97682 2.73357 11.2768 2.47107 12.6602 2.47107C14.0435 2.47107 15.3435 2.73357 16.5602 3.25857C17.7768 3.78357 18.8352 4.49607 19.7352 5.39607C20.6352 6.29607 21.3477 7.3544 21.8727 8.57107C22.3977 9.78774 22.6602 11.0877 22.6602 12.4711C22.6602 13.8544 22.3977 15.1544 21.8727 16.3711C21.3477 17.5877 20.6352 18.6461 19.7352 19.5461C18.8352 20.4461 17.7768 21.1586 16.5602 21.6836C15.3435 22.2086 14.0435 22.4711 12.6602 22.4711ZM12.6602 20.4711C14.8768 20.4711 16.7643 19.6919 18.3227 18.1336C19.881 16.5752 20.6602 14.6877 20.6602 12.4711C20.6602 10.2544 19.881 8.3669 18.3227 6.80857C16.7643 5.25024 14.8768 4.47107 12.6602 4.47107C10.4435 4.47107 8.55599 5.25024 6.99766 6.80857C5.43932 8.3669 4.66016 10.2544 4.66016 12.4711C4.66016 14.6877 5.43932 16.5752 6.99766 18.1336C8.55599 19.6919 10.4435 20.4711 12.6602 20.4711Z" fill="#1C1B1F"/>
</g>
</svg>
