<svg width="158" height="25" viewBox="0 0 158 25" fill="none" xmlns="http://www.w3.org/2000/svg">
<path d="M65.8049 9.61438C65.8207 9.8364 65.8207 10.0585 65.8207 10.2805C65.8207 17.0522 60.6742 24.8548 51.2679 24.8548C48.3701 24.8548 45.678 24.0142 43.4136 22.5553C43.8253 22.6028 44.2212 22.6187 44.6487 22.6187C47.0398 22.6187 49.241 21.8099 50.9987 20.4302C48.7501 20.3826 46.8657 18.9077 46.2164 16.8778C46.5332 16.9253 46.8498 16.957 47.1824 16.957C47.6416 16.957 48.1009 16.8936 48.5284 16.7826C46.1848 16.3068 44.427 14.2452 44.427 11.7553V11.6919C45.1079 12.0725 45.8997 12.3104 46.7389 12.3421C45.3613 11.4223 44.4587 9.85226 44.4587 8.07606C44.4587 7.12454 44.712 6.2523 45.1554 5.49107C47.6733 8.59941 51.4579 10.6293 55.7018 10.8514C55.6226 10.4708 55.5751 10.0743 55.5751 9.67784C55.5751 6.85493 57.8554 4.55542 60.69 4.55542C62.1626 4.55542 63.4928 5.17391 64.4271 6.17303C65.5831 5.95101 66.6915 5.5228 67.6734 4.93604C67.2933 6.12548 66.4857 7.12459 65.4248 7.7589C66.4541 7.64794 67.4517 7.36242 68.3701 6.96599C67.6735 7.98091 66.8025 8.88483 65.8049 9.61438Z" fill="#F5F5F5"/>
<path d="M114.112 12.1063C114.112 5.41854 108.701 0 102.023 0C95.3456 0 89.9351 5.41854 89.9351 12.1063C89.9351 18.1487 94.3556 23.1572 100.135 24.0661V15.6059H97.0638V12.1063H100.135V9.439C100.135 6.4051 101.938 4.72926 104.7 4.72926C106.023 4.72926 107.407 4.96553 107.407 4.96553V7.94329H105.882C104.381 7.94329 103.912 8.87664 103.912 9.83392V12.1063H107.265L106.729 15.6059H103.912V24.0661C109.691 23.1572 114.112 18.1487 114.112 12.1063Z" fill="#F5F5F5"/>
<path d="M155.953 2.19678H137.231C136.373 2.19678 135.676 2.9046 135.676 3.77352V22.4895C135.676 23.3584 136.373 24.0662 137.231 24.0662H155.953C156.811 24.0662 157.513 23.3584 157.513 22.4895V3.77352C157.513 2.9046 156.811 2.19678 155.953 2.19678ZM142.276 20.942H139.039V10.5052H142.281V20.942H142.276ZM140.657 9.07979C139.619 9.07979 138.781 8.23528 138.781 7.20038C138.781 6.16549 139.619 5.32098 140.657 5.32098C141.691 5.32098 142.534 6.16549 142.534 7.20038C142.534 8.24016 141.696 9.07979 140.657 9.07979ZM154.408 20.942H151.171V15.8652C151.171 14.6545 151.147 13.0973 149.49 13.0973C147.803 13.0973 147.545 14.4153 147.545 15.7773V20.942H144.308V10.5052H147.413V11.9306H147.457C147.891 11.1105 148.949 10.2465 150.523 10.2465C153.799 10.2465 154.408 12.409 154.408 15.2208V20.942Z" fill="#F5F5F5"/>
<path d="M10.9271 8.30748C7.82698 8.30748 5.32644 10.8117 5.32644 13.9164C5.32644 17.0211 7.82698 19.5253 10.9271 19.5253C14.0271 19.5253 16.5277 17.0211 16.5277 13.9164C16.5277 10.8117 14.0271 8.30748 10.9271 8.30748ZM10.9271 17.5629C8.92371 17.5629 7.28593 15.9276 7.28593 13.9164C7.28593 11.9052 8.91883 10.2699 10.9271 10.2699C12.9353 10.2699 14.5682 11.9052 14.5682 13.9164C14.5682 15.9276 12.9304 17.5629 10.9271 17.5629ZM18.0631 8.07804C18.0631 8.8054 17.4782 9.38631 16.7568 9.38631C16.0305 9.38631 15.4505 8.80052 15.4505 8.07804C15.4505 7.35557 16.0354 6.76978 16.7568 6.76978C17.4782 6.76978 18.0631 7.35557 18.0631 8.07804ZM21.7725 9.40583C21.6896 7.65335 21.2899 6.10101 20.008 4.82204C18.7309 3.54307 17.1809 3.14278 15.431 3.05491C13.6275 2.9524 8.2218 2.9524 6.41829 3.05491C4.67328 3.1379 3.12324 3.53819 1.84128 4.81716C0.559331 6.09613 0.164509 7.64847 0.0767709 9.40095C-0.0255903 11.2071 -0.0255903 16.6208 0.0767709 18.427C0.159635 20.1794 0.559331 21.7318 1.84128 23.0108C3.12324 24.2897 4.6684 24.69 6.41829 24.7779C8.2218 24.8804 13.6275 24.8804 15.431 24.7779C17.1809 24.6949 18.7309 24.2946 20.008 23.0108C21.285 21.7318 21.6847 20.1794 21.7725 18.427C21.8748 16.6208 21.8748 11.212 21.7725 9.40583ZM19.4425 20.365C19.0623 21.3217 18.3263 22.0589 17.3661 22.4445C15.9281 23.0156 12.5161 22.8838 10.9271 22.8838C9.33803 22.8838 5.92111 23.0108 4.48805 22.4445C3.53268 22.0637 2.79666 21.3266 2.41158 20.365C1.84128 18.9249 1.97289 15.5078 1.97289 13.9164C1.97289 12.325 1.84616 8.90303 2.41158 7.46785C2.79178 6.51106 3.52781 5.77394 4.48805 5.3883C5.92599 4.81716 9.33803 4.94896 10.9271 4.94896C12.5161 4.94896 15.933 4.82204 17.3661 5.3883C18.3214 5.76906 19.0575 6.50618 19.4425 7.46785C20.0128 8.90791 19.8812 12.325 19.8812 13.9164C19.8812 15.5078 20.0128 18.9298 19.4425 20.365Z" fill="#F5F5F5"/>
</svg>
