<svg width="38" height="36" viewBox="0 0 38 36" fill="none" xmlns="http://www.w3.org/2000/svg">
<mask id="mask0_348_46" style="mask-type:alpha" maskUnits="userSpaceOnUse" x="0" y="0" width="38" height="36">
<rect x="0.5" y="0.169189" width="36.5215" height="35.4579" fill="#D9D9D9"/>
</mask>
<g mask="url(#mask0_348_46)">
<path d="M18.76 31.1948C16.8578 31.1948 15.0762 30.8439 13.4149 30.1422C11.7537 29.4404 10.3081 28.4924 9.07801 27.2981C7.84795 26.1039 6.87151 24.7004 6.14868 23.0875C5.42586 21.4747 5.06445 19.7449 5.06445 17.8981C5.06445 16.0513 5.42586 14.3215 6.14868 12.7087C6.87151 11.0959 7.84795 9.69232 9.07801 8.49808C10.3081 7.30384 11.7537 6.35584 13.4149 5.65407C15.0762 4.9523 16.8578 4.60141 18.76 4.60141C20.8397 4.60141 22.8116 5.03232 24.6757 5.89414C26.5398 6.75597 28.1186 7.97483 29.4121 9.55074V6.07882H32.4556V14.9433H23.3252V11.9885H27.5099C26.4701 10.6095 25.1893 9.52611 23.6676 8.73816C22.1459 7.95021 20.51 7.55623 18.76 7.55623C15.7926 7.55623 13.2754 8.55964 11.2084 10.5665C9.14142 12.5733 8.10791 15.0172 8.10791 17.8981C8.10791 20.7791 9.14142 23.2229 11.2084 25.2298C13.2754 27.2366 15.7926 28.24 18.76 28.24C21.423 28.24 23.75 27.4028 25.7409 25.7284C27.7319 24.054 28.9049 21.9364 29.2599 19.3755H32.3795C31.999 22.7489 30.509 25.5622 27.9094 27.8152C25.3098 30.0683 22.26 31.1948 18.76 31.1948ZM23.0208 24.1032L17.2383 18.4891V10.5111H20.2817V17.3071L25.1513 22.0349L23.0208 24.1032Z" fill="#1C1B1F"/>
</g>
</svg>
