<svg width="22" height="23" viewBox="0 0 22 23" fill="none" xmlns="http://www.w3.org/2000/svg">
<path d="M20.3495 0.811035H1.62718C0.769297 0.811035 0.0722656 1.51886 0.0722656 2.38778V21.1037C0.0722656 21.9726 0.769297 22.6805 1.62718 22.6805H20.3495C21.2074 22.6805 21.9093 21.9726 21.9093 21.1037V2.38778C21.9093 1.51886 21.2074 0.811035 20.3495 0.811035ZM6.67213 19.5563H3.43556V9.11946H6.677V19.5563H6.67213ZM5.05385 7.69405C4.01561 7.69405 3.17722 6.84953 3.17722 5.81464C3.17722 4.77975 4.01561 3.93524 5.05385 3.93524C6.08721 3.93524 6.93047 4.77975 6.93047 5.81464C6.93047 6.85442 6.09208 7.69405 5.05385 7.69405ZM18.8044 19.5563H15.5678V14.4794C15.5678 13.2688 15.5434 11.7116 13.8862 11.7116C12.1996 11.7116 11.9413 13.0296 11.9413 14.3916V19.5563H8.70473V9.11946H11.8097V10.5449H11.8536C12.2874 9.72478 13.3451 8.86074 14.9195 8.86074C18.1951 8.86074 18.8044 11.0233 18.8044 13.8351V19.5563Z" fill="#F5F5F5"/>
</svg>
