<svg width="22" height="23" viewBox="0 0 22 23" fill="none" xmlns="http://www.w3.org/2000/svg">
<path d="M11.0169 6.13682C7.91682 6.13682 5.41628 8.64107 5.41628 11.7457C5.41628 14.8504 7.91682 17.3547 11.0169 17.3547C14.117 17.3547 16.6175 14.8504 16.6175 11.7457C16.6175 8.64107 14.117 6.13682 11.0169 6.13682ZM11.0169 15.3923C9.01355 15.3923 7.37577 13.757 7.37577 11.7457C7.37577 9.73454 9.00868 8.09921 11.0169 8.09921C13.0251 8.09921 14.658 9.73454 14.658 11.7457C14.658 13.757 13.0203 15.3923 11.0169 15.3923ZM18.153 5.90739C18.153 6.63474 17.568 7.21565 16.8466 7.21565C16.1203 7.21565 15.5403 6.62986 15.5403 5.90739C15.5403 5.18492 16.1252 4.59913 16.8466 4.59913C17.568 4.59913 18.153 5.18492 18.153 5.90739ZM21.8623 7.23518C21.7795 5.48269 21.3798 3.93036 20.0978 2.65139C18.8207 1.37241 17.2707 0.972126 15.5208 0.884258C13.7173 0.781745 8.31165 0.781745 6.50814 0.884258C4.76312 0.967244 3.21308 1.36753 1.93113 2.6465C0.649175 3.92547 0.254353 5.47781 0.166615 7.2303C0.0642534 9.03648 0.0642534 14.4501 0.166615 16.2563C0.249479 18.0088 0.649175 19.5611 1.93113 20.8401C3.21308 22.1191 4.75825 22.5194 6.50814 22.6072C8.31165 22.7097 13.7173 22.7097 15.5208 22.6072C17.2707 22.5242 18.8207 22.124 20.0978 20.8401C21.3749 19.5611 21.7746 18.0088 21.8623 16.2563C21.9647 14.4501 21.9647 9.04136 21.8623 7.23518ZM19.5324 18.1943C19.1522 19.1511 18.4162 19.8882 17.4559 20.2738C16.018 20.845 12.6059 20.7132 11.0169 20.7132C9.42787 20.7132 6.01095 20.8401 4.5779 20.2738C3.62253 19.8931 2.8865 19.156 2.50143 18.1943C1.93113 16.7542 2.06274 13.3371 2.06274 11.7457C2.06274 10.1544 1.936 6.73238 2.50143 5.29719C2.88163 4.34041 3.61765 3.60329 4.5779 3.21765C6.01583 2.6465 9.42787 2.77831 11.0169 2.77831C12.6059 2.77831 16.0229 2.65138 17.4559 3.21765C18.4113 3.59841 19.1473 4.33553 19.5324 5.29719C20.1027 6.73726 19.9711 10.1544 19.9711 11.7457C19.9711 13.3371 20.1027 16.7591 19.5324 18.1943Z" fill="#F5F5F5"/>
</svg>
