<svg width="26" height="21" viewBox="0 0 26 21" fill="none" xmlns="http://www.w3.org/2000/svg">
<path d="M23.3307 5.65503C23.3466 5.87705 23.3466 6.09911 23.3466 6.32112C23.3466 13.0928 18.2001 20.8954 8.79383 20.8954C5.89593 20.8954 3.20393 20.0549 0.939453 18.5959C1.35119 18.6435 1.74703 18.6593 2.17461 18.6593C4.56572 18.6593 6.76688 17.8506 8.52462 16.4708C6.27598 16.4232 4.39156 14.9484 3.7423 12.9184C4.05903 12.966 4.37572 12.9977 4.7083 12.9977C5.16751 12.9977 5.62677 12.9342 6.0543 12.8233C3.71066 12.3475 1.95288 10.2858 1.95288 7.79599V7.73258C2.63378 8.11319 3.42561 8.35107 4.26483 8.38275C2.88714 7.46292 1.98456 5.89291 1.98456 4.1167C1.98456 3.16519 2.23788 2.29295 2.6813 1.53172C5.19914 4.64006 8.98383 6.66996 13.2277 6.89202C13.1485 6.51141 13.101 6.11497 13.101 5.71849C13.101 2.89558 15.3813 0.596069 18.2158 0.596069C19.6885 0.596069 21.0187 1.21456 21.953 2.21367C23.1089 1.99166 24.2174 1.56345 25.1993 0.976685C24.8192 2.16613 24.0116 3.16524 22.9506 3.79955C23.9799 3.68859 24.9776 3.40307 25.896 3.00664C25.1994 4.02156 24.3284 4.92548 23.3307 5.65503Z" fill="#F5F5F5"/>
</svg>
